<svg xmlns="http://www.w3.org/2000/svg" xmlns:xlink="http://www.w3.org/1999/xlink" width="500" zoomAndPan="magnify" viewBox="0 0 375 374.999991" height="500" preserveAspectRatio="xMidYMid meet" version="1.0"><defs><g/><clipPath id="1ccea96782"><path d="M 57.0625 142.847656 L 146.3125 142.847656 L 146.3125 232.097656 L 57.0625 232.097656 Z M 57.0625 142.847656 " clip-rule="nonzero"/></clipPath><clipPath id="5ee5f48318"><path d="M 101.710938 142.847656 C 77.050781 142.847656 57.0625 162.839844 57.0625 187.496094 C 57.0625 212.15625 77.050781 232.144531 101.710938 232.144531 C 126.371094 232.144531 146.359375 212.15625 146.359375 187.496094 C 146.359375 162.839844 126.371094 142.847656 101.710938 142.847656 Z M 101.710938 142.847656 " clip-rule="nonzero"/></clipPath><clipPath id="905012fd38"><path d="M 95.335938 163.609375 L 108.089844 163.609375 L 108.089844 176.363281 L 95.335938 176.363281 Z M 95.335938 163.609375 " clip-rule="nonzero"/></clipPath><clipPath id="5fec5df0be"><path d="M 101.714844 163.609375 C 98.191406 163.609375 95.335938 166.464844 95.335938 169.984375 C 95.335938 173.507812 98.191406 176.363281 101.714844 176.363281 C 105.234375 176.363281 108.089844 173.507812 108.089844 169.984375 C 108.089844 166.464844 105.234375 163.609375 101.714844 163.609375 Z M 101.714844 163.609375 " clip-rule="nonzero"/></clipPath><clipPath id="b8bc393ce4"><path d="M 73.480469 190.199219 L 86.234375 190.199219 L 86.234375 202.949219 L 73.480469 202.949219 Z M 73.480469 190.199219 " clip-rule="nonzero"/></clipPath><clipPath id="758c830e51"><path d="M 79.859375 190.199219 C 76.335938 190.199219 73.480469 193.050781 73.480469 196.574219 C 73.480469 200.097656 76.335938 202.949219 79.859375 202.949219 C 83.378906 202.949219 86.234375 200.097656 86.234375 196.574219 C 86.234375 193.050781 83.378906 190.199219 79.859375 190.199219 Z M 79.859375 190.199219 " clip-rule="nonzero"/></clipPath><clipPath id="c756545520"><path d="M 117.117188 175.027344 L 129.871094 175.027344 L 129.871094 187.777344 L 117.117188 187.777344 Z M 117.117188 175.027344 " clip-rule="nonzero"/></clipPath><clipPath id="08baa342bd"><path d="M 123.492188 175.027344 C 119.972656 175.027344 117.117188 177.878906 117.117188 181.402344 C 117.117188 184.925781 119.972656 187.777344 123.492188 187.777344 C 127.015625 187.777344 129.871094 184.925781 129.871094 181.402344 C 129.871094 177.878906 127.015625 175.027344 123.492188 175.027344 Z M 123.492188 175.027344 " clip-rule="nonzero"/></clipPath></defs><rect x="-37.5" width="450" fill="#ffffff" y="-37.499999" height="449.999989" fill-opacity="1"/><rect x="-37.5" width="450" fill="#fffefe" y="-37.499999" height="449.999989" fill-opacity="1"/><g clip-path="url(#1ccea96782)"><g clip-path="url(#5ee5f48318)"><path stroke-linecap="butt" transform="matrix(0.75, 0, 0, 0.75, 57.062919, 142.849313)" fill="none" stroke-linejoin="miter" d="M 59.530695 -0.00220903 C 26.650485 -0.00220903 -0.000558871 26.654043 -0.000558871 59.529045 C -0.000558871 92.409255 26.650485 119.060299 59.530695 119.060299 C 92.410906 119.060299 119.061949 92.409255 119.061949 59.529045 C 119.061949 26.654043 92.410906 -0.00220903 59.530695 -0.00220903 Z M 59.530695 -0.00220903 " stroke="#000000" stroke-width="14" stroke-opacity="1" stroke-miterlimit="4"/></g></g><path stroke-linecap="butt" transform="matrix(0.000000001309, -0.75, 0.75, 0.000000001309, 99.462771, 232.149844)" fill="none" stroke-linejoin="miter" d="M 0.00187528 2.997556 L 77.34563 2.997556 " stroke="#000000" stroke-width="6" stroke-opacity="1" stroke-miterlimit="4"/><g clip-path="url(#905012fd38)"><g clip-path="url(#5fec5df0be)"><path fill="#000000" d="M 95.335938 163.609375 L 108.089844 163.609375 L 108.089844 176.363281 L 95.335938 176.363281 Z M 95.335938 163.609375 " fill-opacity="1" fill-rule="nonzero"/></g></g><g clip-path="url(#b8bc393ce4)"><g clip-path="url(#758c830e51)"><path fill="#000000" d="M 73.480469 190.199219 L 86.234375 190.199219 L 86.234375 202.949219 L 73.480469 202.949219 Z M 73.480469 190.199219 " fill-opacity="1" fill-rule="nonzero"/></g></g><g clip-path="url(#c756545520)"><g clip-path="url(#08baa342bd)"><path fill="#000000" d="M 117.117188 175.027344 L 129.871094 175.027344 L 129.871094 187.777344 L 117.117188 187.777344 Z M 117.117188 175.027344 " fill-opacity="1" fill-rule="nonzero"/></g></g><path stroke-linecap="butt" transform="matrix(-0.53033, -0.53033, 0.53033, -0.53033, 100.120397, 220.214664)" fill="none" stroke-linejoin="miter" d="M -0.000826311 2.998326 L 37.39113 3.002008 " stroke="#000000" stroke-width="6" stroke-opacity="1" stroke-miterlimit="4"/><path stroke-linecap="butt" transform="matrix(0.53033, -0.53033, 0.53033, 0.53033, 99.550414, 202.305076)" fill="none" stroke-linejoin="miter" d="M 0.000712106 2.997819 L 37.392668 3.001502 " stroke="#000000" stroke-width="6" stroke-opacity="1" stroke-miterlimit="4"/><g fill="#000000" fill-opacity="1"><g transform="translate(158.201274, 179.999988)"><g><path d="M 18.703125 0.484375 C 16.441406 0.484375 14.410156 0.175781 12.609375 -0.4375 C 10.804688 -1.0625 9.242188 -1.925781 7.921875 -3.03125 C 6.597656 -4.132812 5.492188 -5.429688 4.609375 -6.921875 C 3.734375 -8.410156 3.078125 -10.03125 2.640625 -11.78125 C 2.210938 -13.539062 2 -15.367188 2 -17.265625 C 2 -19.148438 2.210938 -20.96875 2.640625 -22.71875 C 3.078125 -24.476562 3.726562 -26.101562 4.59375 -27.59375 C 5.46875 -29.082031 6.5625 -30.390625 7.875 -31.515625 C 9.195312 -32.640625 10.757812 -33.507812 12.5625 -34.125 C 14.363281 -34.75 16.394531 -35.0625 18.65625 -35.0625 C 20.9375 -35.0625 23.039062 -34.679688 24.96875 -33.921875 C 26.90625 -33.160156 28.617188 -32.046875 30.109375 -30.578125 C 31.597656 -29.109375 32.804688 -27.296875 33.734375 -25.140625 L 27.953125 -22.859375 C 27.523438 -24.367188 26.859375 -25.582031 25.953125 -26.5 C 25.054688 -27.414062 23.976562 -28.085938 22.71875 -28.515625 C 21.46875 -28.941406 20.097656 -29.15625 18.609375 -29.15625 C 16.785156 -29.15625 15.210938 -28.851562 13.890625 -28.25 C 12.578125 -27.644531 11.492188 -26.804688 10.640625 -25.734375 C 9.796875 -24.660156 9.171875 -23.414062 8.765625 -22 C 8.359375 -20.59375 8.15625 -19.09375 8.15625 -17.5 C 8.15625 -15.789062 8.359375 -14.195312 8.765625 -12.71875 C 9.171875 -11.25 9.800781 -9.96875 10.65625 -8.875 C 11.507812 -7.78125 12.597656 -6.925781 13.921875 -6.3125 C 15.253906 -5.695312 16.847656 -5.390625 18.703125 -5.390625 C 20.929688 -5.390625 22.8125 -5.878906 24.34375 -6.859375 C 25.882812 -7.835938 27.117188 -9.484375 28.046875 -11.796875 L 33.796875 -9.453125 C 32.878906 -7.296875 31.675781 -5.484375 30.1875 -4.015625 C 28.695312 -2.546875 26.984375 -1.425781 25.046875 -0.65625 C 23.109375 0.101562 20.992188 0.484375 18.703125 0.484375 Z M 18.703125 0.484375 "/></g></g></g><g fill="#000000" fill-opacity="1"><g transform="translate(193.156747, 179.999988)"><g><path d="M 13.75 0.484375 C 11.851562 0.484375 10.140625 0.148438 8.609375 -0.515625 C 7.085938 -1.191406 5.773438 -2.113281 4.671875 -3.28125 C 3.578125 -4.457031 2.734375 -5.816406 2.140625 -7.359375 C 1.546875 -8.898438 1.25 -10.53125 1.25 -12.25 C 1.25 -13.976562 1.546875 -15.601562 2.140625 -17.125 C 2.734375 -18.644531 3.578125 -19.988281 4.671875 -21.15625 C 5.773438 -22.320312 7.085938 -23.238281 8.609375 -23.90625 C 10.140625 -24.570312 11.851562 -24.90625 13.75 -24.90625 C 15.632812 -24.90625 17.34375 -24.570312 18.875 -23.90625 C 20.40625 -23.238281 21.71875 -22.320312 22.8125 -21.15625 C 23.914062 -19.988281 24.765625 -18.644531 25.359375 -17.125 C 25.953125 -15.601562 26.25 -13.976562 26.25 -12.25 C 26.25 -10.53125 25.953125 -8.898438 25.359375 -7.359375 C 24.765625 -5.816406 23.914062 -4.457031 22.8125 -3.28125 C 21.71875 -2.113281 20.40625 -1.191406 18.875 -0.515625 C 17.34375 0.148438 15.632812 0.484375 13.75 0.484375 Z M 13.75 -4.640625 C 14.875 -4.640625 15.835938 -4.847656 16.640625 -5.265625 C 17.441406 -5.679688 18.09375 -6.242188 18.59375 -6.953125 C 19.09375 -7.660156 19.457031 -8.472656 19.6875 -9.390625 C 19.925781 -10.304688 20.046875 -11.257812 20.046875 -12.25 C 20.046875 -13.257812 19.925781 -14.210938 19.6875 -15.109375 C 19.457031 -16.003906 19.09375 -16.800781 18.59375 -17.5 C 18.09375 -18.207031 17.441406 -18.757812 16.640625 -19.15625 C 15.835938 -19.550781 14.875 -19.75 13.75 -19.75 C 12.25 -19.75 11.035156 -19.398438 10.109375 -18.703125 C 9.179688 -18.015625 8.503906 -17.101562 8.078125 -15.96875 C 7.660156 -14.832031 7.453125 -13.59375 7.453125 -12.25 C 7.453125 -11.257812 7.566406 -10.304688 7.796875 -9.390625 C 8.035156 -8.472656 8.40625 -7.660156 8.90625 -6.953125 C 9.414062 -6.242188 10.066406 -5.679688 10.859375 -5.265625 C 11.660156 -4.847656 12.625 -4.640625 13.75 -4.640625 Z M 13.75 -4.640625 "/></g></g></g><g fill="#000000" fill-opacity="1"><g transform="translate(220.691505, 179.999988)"><g><path d="M 18.953125 -34.5 L 25 -34.5 L 25 0 L 19.453125 0 L 19.1875 -2.734375 C 18.34375 -1.597656 17.289062 -0.773438 16.03125 -0.265625 C 14.769531 0.234375 13.460938 0.484375 12.109375 0.484375 C 10.398438 0.484375 8.882812 0.148438 7.5625 -0.515625 C 6.25 -1.191406 5.144531 -2.117188 4.25 -3.296875 C 3.351562 -4.484375 2.675781 -5.835938 2.21875 -7.359375 C 1.757812 -8.878906 1.53125 -10.492188 1.53125 -12.203125 C 1.53125 -13.898438 1.757812 -15.507812 2.21875 -17.03125 C 2.675781 -18.550781 3.347656 -19.898438 4.234375 -21.078125 C 5.117188 -22.265625 6.210938 -23.195312 7.515625 -23.875 C 8.816406 -24.5625 10.316406 -24.90625 12.015625 -24.90625 C 13.285156 -24.90625 14.546875 -24.675781 15.796875 -24.21875 C 17.046875 -23.757812 18.097656 -23.003906 18.953125 -21.953125 Z M 13.546875 -4.90625 C 14.910156 -4.90625 16.03125 -5.226562 16.90625 -5.875 C 17.78125 -6.519531 18.421875 -7.390625 18.828125 -8.484375 C 19.242188 -9.578125 19.453125 -10.816406 19.453125 -12.203125 C 19.453125 -13.578125 19.242188 -14.8125 18.828125 -15.90625 C 18.421875 -17 17.78125 -17.867188 16.90625 -18.515625 C 16.03125 -19.171875 14.910156 -19.5 13.546875 -19.5 C 12.179688 -19.5 11.054688 -19.171875 10.171875 -18.515625 C 9.296875 -17.867188 8.644531 -16.992188 8.21875 -15.890625 C 7.800781 -14.785156 7.59375 -13.554688 7.59375 -12.203125 C 7.59375 -10.835938 7.800781 -9.601562 8.21875 -8.5 C 8.644531 -7.394531 9.296875 -6.519531 10.171875 -5.875 C 11.054688 -5.226562 12.179688 -4.90625 13.546875 -4.90625 Z M 13.546875 -4.90625 "/></g></g></g><g fill="#000000" fill-opacity="1"><g transform="translate(249.275903, 179.999988)"><g><path d="M 13.703125 0.484375 C 11.597656 0.484375 9.769531 0.144531 8.21875 -0.53125 C 6.675781 -1.21875 5.390625 -2.15625 4.359375 -3.34375 C 3.335938 -4.53125 2.578125 -5.875 2.078125 -7.375 C 1.585938 -8.882812 1.34375 -10.460938 1.34375 -12.109375 C 1.34375 -13.703125 1.578125 -15.253906 2.046875 -16.765625 C 2.523438 -18.285156 3.25 -19.660156 4.21875 -20.890625 C 5.195312 -22.117188 6.4375 -23.09375 7.9375 -23.8125 C 9.445312 -24.539062 11.238281 -24.90625 13.3125 -24.90625 C 15.019531 -24.90625 16.503906 -24.65625 17.765625 -24.15625 C 19.023438 -23.65625 20.09375 -22.984375 20.96875 -22.140625 C 21.851562 -21.296875 22.5625 -20.335938 23.09375 -19.265625 C 23.632812 -18.203125 24.019531 -17.097656 24.25 -15.953125 C 24.488281 -14.804688 24.609375 -13.6875 24.609375 -12.59375 C 24.609375 -12.09375 24.585938 -11.617188 24.546875 -11.171875 C 24.503906 -10.734375 24.453125 -10.425781 24.390625 -10.25 L 7.640625 -10.25 C 7.816406 -9.195312 8.132812 -8.265625 8.59375 -7.453125 C 9.0625 -6.648438 9.71875 -6.023438 10.5625 -5.578125 C 11.414062 -5.128906 12.476562 -4.90625 13.75 -4.90625 C 14.851562 -4.90625 15.890625 -5.097656 16.859375 -5.484375 C 17.835938 -5.878906 18.753906 -6.550781 19.609375 -7.5 L 23.703125 -3.90625 C 22.367188 -2.425781 20.878906 -1.320312 19.234375 -0.59375 C 17.585938 0.125 15.742188 0.484375 13.703125 0.484375 Z M 7.640625 -14.546875 L 18.75 -14.546875 C 18.550781 -16.285156 17.972656 -17.609375 17.015625 -18.515625 C 16.054688 -19.429688 14.800781 -19.890625 13.25 -19.890625 C 12.082031 -19.890625 11.117188 -19.65625 10.359375 -19.1875 C 9.609375 -18.726562 9.015625 -18.097656 8.578125 -17.296875 C 8.148438 -16.492188 7.835938 -15.578125 7.640625 -14.546875 Z M 7.640625 -14.546875 "/></g></g></g><g fill="#000000" fill-opacity="1"><g transform="translate(158.201274, 224.999985)"><g><path d="M 4.4375 0 L 4.4375 -34.5 L 16.40625 -34.5 C 17.46875 -34.5 18.519531 -34.394531 19.5625 -34.1875 C 20.613281 -33.988281 21.609375 -33.664062 22.546875 -33.21875 C 23.492188 -32.769531 24.332031 -32.179688 25.0625 -31.453125 C 25.800781 -30.734375 26.378906 -29.851562 26.796875 -28.8125 C 27.222656 -27.78125 27.4375 -26.578125 27.4375 -25.203125 C 27.4375 -24.160156 27.253906 -23.191406 26.890625 -22.296875 C 26.523438 -21.398438 26.046875 -20.625 25.453125 -19.96875 C 24.867188 -19.320312 24.253906 -18.816406 23.609375 -18.453125 C 24.390625 -18.148438 25.117188 -17.703125 25.796875 -17.109375 C 26.472656 -16.515625 27.0625 -15.828125 27.5625 -15.046875 C 28.070312 -14.273438 28.460938 -13.457031 28.734375 -12.59375 C 29.015625 -11.726562 29.15625 -10.867188 29.15625 -10.015625 C 29.15625 -8.398438 28.84375 -6.972656 28.21875 -5.734375 C 27.601562 -4.492188 26.769531 -3.445312 25.71875 -2.59375 C 24.664062 -1.738281 23.460938 -1.09375 22.109375 -0.65625 C 20.765625 -0.21875 19.359375 0 17.890625 0 Z M 10.640625 -20.609375 L 17 -20.609375 C 17.8125 -20.609375 18.578125 -20.722656 19.296875 -20.953125 C 20.023438 -21.191406 20.613281 -21.617188 21.0625 -22.234375 C 21.519531 -22.859375 21.75 -23.734375 21.75 -24.859375 C 21.75 -25.753906 21.515625 -26.5 21.046875 -27.09375 C 20.585938 -27.695312 19.960938 -28.148438 19.171875 -28.453125 C 18.390625 -28.753906 17.5 -28.90625 16.5 -28.90625 L 10.640625 -28.90625 Z M 10.640625 -5.90625 L 18 -5.90625 C 19.59375 -5.90625 20.832031 -6.296875 21.71875 -7.078125 C 22.601562 -7.859375 23.046875 -9.0625 23.046875 -10.6875 C 23.046875 -11.519531 22.828125 -12.28125 22.390625 -12.96875 C 21.960938 -13.664062 21.351562 -14.222656 20.5625 -14.640625 C 19.78125 -15.054688 18.84375 -15.265625 17.75 -15.265625 L 10.640625 -15.265625 Z M 10.640625 -5.90625 "/></g></g></g><g fill="#000000" fill-opacity="1"><g transform="translate(189.299928, 224.999985)"><g><path d="M 3.546875 0 L 3.546875 -24.390625 L 9.34375 -24.390625 L 9.34375 -20.28125 C 9.707031 -21.28125 10.226562 -22.117188 10.90625 -22.796875 C 11.582031 -23.484375 12.351562 -24.003906 13.21875 -24.359375 C 14.09375 -24.722656 14.984375 -24.90625 15.890625 -24.90625 C 16.703125 -24.90625 17.503906 -24.757812 18.296875 -24.46875 C 19.085938 -24.1875 19.773438 -23.742188 20.359375 -23.140625 L 17.65625 -18.265625 C 16.820312 -18.816406 15.929688 -19.09375 14.984375 -19.09375 C 14.285156 -19.09375 13.597656 -18.925781 12.921875 -18.59375 C 12.253906 -18.257812 11.644531 -17.738281 11.09375 -17.03125 C 10.550781 -16.320312 10.113281 -15.410156 9.78125 -14.296875 C 9.457031 -13.179688 9.296875 -11.847656 9.296875 -10.296875 L 9.296875 0 Z M 3.546875 0 "/></g></g></g><g fill="#000000" fill-opacity="1"><g transform="translate(209.194279, 224.999985)"><g><path d="M 10.203125 0.484375 C 8.546875 0.484375 7.046875 0.175781 5.703125 -0.4375 C 4.359375 -1.0625 3.296875 -1.96875 2.515625 -3.15625 C 1.734375 -4.351562 1.34375 -5.800781 1.34375 -7.5 C 1.34375 -8.8125 1.585938 -9.921875 2.078125 -10.828125 C 2.578125 -11.734375 3.265625 -12.457031 4.140625 -13 C 5.023438 -13.539062 6.054688 -13.929688 7.234375 -14.171875 C 8.421875 -14.421875 9.695312 -14.546875 11.0625 -14.546875 L 17.40625 -14.546875 C 17.40625 -16.097656 17 -17.34375 16.1875 -18.28125 C 15.375 -19.226562 14.175781 -19.703125 12.59375 -19.703125 C 11.664062 -19.703125 10.832031 -19.535156 10.09375 -19.203125 C 9.351562 -18.878906 8.71875 -18.457031 8.1875 -17.9375 C 7.65625 -17.414062 7.210938 -16.859375 6.859375 -16.265625 L 2.296875 -19.5625 C 3.078125 -20.632812 3.953125 -21.566406 4.921875 -22.359375 C 5.898438 -23.160156 7.015625 -23.785156 8.265625 -24.234375 C 9.523438 -24.679688 10.953125 -24.90625 12.546875 -24.90625 C 14.765625 -24.90625 16.65625 -24.476562 18.21875 -23.625 C 19.789062 -22.769531 20.992188 -21.582031 21.828125 -20.0625 C 22.671875 -18.539062 23.09375 -16.785156 23.09375 -14.796875 L 23.09375 0 L 18.1875 0 L 17.796875 -3.484375 C 16.753906 -1.960938 15.585938 -0.921875 14.296875 -0.359375 C 13.015625 0.203125 11.648438 0.484375 10.203125 0.484375 Z M 11.0625 -4.546875 C 11.90625 -4.546875 12.703125 -4.691406 13.453125 -4.984375 C 14.210938 -5.285156 14.878906 -5.707031 15.453125 -6.25 C 16.035156 -6.789062 16.503906 -7.398438 16.859375 -8.078125 C 17.210938 -8.765625 17.394531 -9.488281 17.40625 -10.25 L 11.40625 -10.25 C 10.050781 -10.25 9.050781 -9.945312 8.40625 -9.34375 C 7.769531 -8.75 7.453125 -8.066406 7.453125 -7.296875 C 7.453125 -6.503906 7.765625 -5.847656 8.390625 -5.328125 C 9.015625 -4.804688 9.90625 -4.546875 11.0625 -4.546875 Z M 11.0625 -4.546875 "/></g></g></g><g fill="#000000" fill-opacity="1"><g transform="translate(235.09355, 224.999985)"><g><path d="M 3.546875 0 L 3.546875 -24.390625 L 9.453125 -24.390625 L 9.453125 -21.5625 C 10.097656 -22.351562 10.828125 -22.992188 11.640625 -23.484375 C 12.453125 -23.972656 13.289062 -24.332031 14.15625 -24.5625 C 15.019531 -24.789062 15.851562 -24.90625 16.65625 -24.90625 C 18.25 -24.90625 19.601562 -24.613281 20.71875 -24.03125 C 21.84375 -23.457031 22.753906 -22.675781 23.453125 -21.6875 C 24.160156 -20.707031 24.675781 -19.601562 25 -18.375 C 25.320312 -17.15625 25.484375 -15.914062 25.484375 -14.65625 L 25.484375 0 L 19.609375 0 L 19.609375 -13.890625 C 19.609375 -14.960938 19.429688 -15.914062 19.078125 -16.75 C 18.734375 -17.582031 18.210938 -18.234375 17.515625 -18.703125 C 16.828125 -19.171875 15.96875 -19.40625 14.9375 -19.40625 C 13.257812 -19.40625 11.925781 -18.925781 10.9375 -17.96875 C 9.945312 -17.019531 9.453125 -15.484375 9.453125 -13.359375 L 9.453125 0 Z M 3.546875 0 "/></g></g></g><g fill="#000000" fill-opacity="1"><g transform="translate(263.433846, 224.999985)"><g><path d="M 13.203125 0.484375 C 11.222656 0.484375 9.488281 0.132812 8 -0.5625 C 6.519531 -1.257812 5.289062 -2.207031 4.3125 -3.40625 C 3.34375 -4.601562 2.613281 -5.957031 2.125 -7.46875 C 1.632812 -8.976562 1.390625 -10.539062 1.390625 -12.15625 C 1.390625 -13.75 1.628906 -15.304688 2.109375 -16.828125 C 2.585938 -18.347656 3.3125 -19.710938 4.28125 -20.921875 C 5.25 -22.140625 6.472656 -23.109375 7.953125 -23.828125 C 9.441406 -24.546875 11.175781 -24.90625 13.15625 -24.90625 C 15.582031 -24.90625 17.710938 -24.3125 19.546875 -23.125 C 21.390625 -21.9375 22.773438 -20.128906 23.703125 -17.703125 L 18.046875 -15.5 C 17.734375 -16.675781 17.144531 -17.632812 16.28125 -18.375 C 15.414062 -19.125 14.375 -19.5 13.15625 -19.5 C 12.132812 -19.5 11.257812 -19.289062 10.53125 -18.875 C 9.8125 -18.46875 9.222656 -17.910156 8.765625 -17.203125 C 8.304688 -16.492188 7.972656 -15.703125 7.765625 -14.828125 C 7.554688 -13.960938 7.453125 -13.070312 7.453125 -12.15625 C 7.453125 -11.226562 7.554688 -10.332031 7.765625 -9.46875 C 7.972656 -8.601562 8.300781 -7.828125 8.75 -7.140625 C 9.195312 -6.453125 9.78125 -5.90625 10.5 -5.5 C 11.226562 -5.101562 12.113281 -4.90625 13.15625 -4.90625 C 14.363281 -4.90625 15.398438 -5.265625 16.265625 -5.984375 C 17.140625 -6.710938 17.734375 -7.648438 18.046875 -8.796875 L 23.46875 -6.734375 C 22.925781 -5.222656 22.15625 -3.925781 21.15625 -2.84375 C 20.164062 -1.757812 18.992188 -0.929688 17.640625 -0.359375 C 16.296875 0.203125 14.816406 0.484375 13.203125 0.484375 Z M 13.203125 0.484375 "/></g></g></g><g fill="#000000" fill-opacity="1"><g transform="translate(287.941733, 224.999985)"><g><path d="M 3.59375 0 L 3.59375 -34.5 L 9.640625 -34.5 L 9.640625 -21.5625 C 10.617188 -22.757812 11.742188 -23.613281 13.015625 -24.125 C 14.285156 -24.644531 15.515625 -24.90625 16.703125 -24.90625 C 18.296875 -24.90625 19.660156 -24.613281 20.796875 -24.03125 C 21.941406 -23.457031 22.875 -22.675781 23.59375 -21.6875 C 24.320312 -20.707031 24.851562 -19.601562 25.1875 -18.375 C 25.53125 -17.15625 25.703125 -15.914062 25.703125 -14.65625 L 25.703125 0 L 19.65625 0 L 19.65625 -13.890625 C 19.65625 -14.898438 19.535156 -15.828125 19.296875 -16.671875 C 19.066406 -17.515625 18.632812 -18.195312 18 -18.71875 C 17.375 -19.238281 16.460938 -19.5 15.265625 -19.5 C 13.992188 -19.5 12.941406 -19.1875 12.109375 -18.5625 C 11.273438 -17.9375 10.65625 -17.082031 10.25 -16 C 9.84375 -14.914062 9.640625 -13.703125 9.640625 -12.359375 L 9.640625 0 Z M 3.59375 0 "/></g></g></g></svg>